<svg width="249" height="393" xmlns="http://www.w3.org/2000/svg">
 <defs>
  <linearGradient spreadMethod="pad" y2="1" x2="1" y1="0" x1="0" id="imagebot_41">
   <stop offset="0" stop-color="#FFFF00"/>
   <stop offset="0.24082" stop-color="#ff0000"/>
  </linearGradient>
 </defs>
 <g id="imagebot_2">
  <g transform="translate(-1, 0) matrix(0.868448, 0, 0, 1.01183, 18.0139, -1.50672)" id="imagebot_42">
   <path fill="#ff7f00" fill-rule="nonzero" stroke="#000000" stroke-width="2.20408" stroke-linecap="round" stroke-linejoin="round" stroke-miterlimit="4" id="imagebot_39" d="M247.856,251.275 A123.876,123.876 0 1,1 0.104471,251.275 A123.876,123.876 0 1,1 247.856,251.275 z"/>
   <path transform="translate(-0.898321, 0.000183105) matrix(1, 0, 0, 1, -200.076, -237.528)" fill="#000000" fill-opacity="0.31373" fill-rule="nonzero" stroke-width="4" stroke-linecap="round" stroke-linejoin="round" stroke-miterlimit="4" id="imagebot_26" d="M433.958,429.688 C437.173,440.707 438.885,452.369 438.885,464.423 C438.885,532.81 383.393,588.302 315.006,588.302 C267.989,588.302 227.05,562.063 206.062,523.444 C221.147,574.853 268.684,612.431 324.952,612.431 C393.34,612.431 448.832,556.939 448.832,488.552 C448.832,467.255 443.436,447.198 433.958,429.688 z"/>
  </g>
  <path transform="translate(-0.898321, 0.000183105) matrix(1, 0, 0, 1, -200.076, -237.528)" fill="#ff7f00" fill-rule="evenodd" stroke="#000000" stroke-width="4" stroke-miterlimit="4" id="imagebot_40" d="M305.94748,383.8103C296.50467,320.22861 360.34659,315.95056 353.16159,290.64111C345.6886,264.31714 316.64935,271.75546 301.54083,267.97833C286.43231,264.2012 288.66162,250.24461 297.7637,242.79745C304.68845,237.13176 361.31152,234.06812 374.56534,275.53259C393.00195,333.21136 329.23978,328.41238 329.23978,382.55124C329.23978,428.57526 307.20651,383.8103 305.94748,383.8103z"/>
  <path fill="url(#imagebot_41)" fill-opacity="0.31" fill-rule="evenodd" stroke-width="4" stroke-miterlimit="4" id="imagebot_38" d="M158.182,15.5352 C161.502,19.7216 164.224,24.673 166.088,30.5039 C184.524,88.1827 120.775,83.3963 120.775,137.535 C120.775,156.232 117.115,159.936 112.713,157.754 C119.504,166.958 128.275,174.085 128.275,145.035 C128.275,90.8963 192.024,95.6827 173.588,38.0039 C170.458,28.2111 164.924,20.9129 158.182,15.5352 z M90.0253,21.9414 C91.1419,25.7169 94.4187,28.907 100.557,30.4414 C111.325,33.1335 129.174,30.1407 141.244,37.7227 C130.628,20.8741 106.405,26.2786 93.0565,22.9414 C91.9446,22.6634 90.9535,22.323 90.0253,21.9414 z"/>
  <path transform="translate(-0.898321, 0.000183105) matrix(1, 0, 0, 1, -200.076, -237.528)" fill="#000000" fill-opacity="0.31373" fill-rule="nonzero" stroke-width="4" stroke-linecap="round" stroke-linejoin="round" stroke-miterlimit="4" stroke-opacity="0.31373" id="imagebot_37" d="M279.3125,373.875C264.95151,379.67752 251.93095,388.10477 240.84375,398.5625C244.0858,404.08066 248.29312,409.15115 253.625,412.96875C241.32736,429.06683 234.03125,449.16162 234.03125,470.96875C234.03123,523.78815 276.89938,566.65625 329.71875,566.65625C382.53812,566.65625 425.40625,523.78809 425.40625,470.96875C425.40625,449.3685 418.21201,429.45807 406.125,413.4375C409.84808,410.89044 413.01306,407.74405 415.71875,404.25C405.15326,392.91083 392.50012,383.54391 378.34375,376.8125C378.03961,377.17316 377.75421,377.53851 377.46875,377.90625C375.31177,380.685 373.91516,383.26712 373.125,385.6875C360.09027,379.03238 345.34949,375.28125 329.71875,375.28125C314.43332,375.28125 299.97711,378.86765 287.15625,385.25C286.34317,382.957 284.99432,380.51572 282.96875,377.90625C281.88474,376.50977 280.64566,375.1658 279.3125,373.875z"/>
  <path transform="translate(-0.898321, 0.000183105) matrix(1, 0, 0, 1, -200.076, -237.528)" fill="#ff7f00" fill-rule="nonzero" stroke="#000000" stroke-width="4" stroke-linecap="round" stroke-linejoin="round" stroke-miterlimit="4" id="imagebot_36" d="M233.71875,341.73563C231.15402,341.79254 229.2589,342.323 228.3125,343.39188C224.8251,347.3306 227.72243,383.32623 249.375,398.82938C237.07738,414.92746 229.78125,435.02225 229.78125,456.82938C229.78125,509.64877 272.64938,552.51691 325.46875,552.51691C378.28812,552.51691 421.15625,509.64874 421.15625,456.82938C421.15625,435.2291 413.96201,415.3187 401.875,399.29813C424.13959,384.06638 427.14816,347.371 423.625,343.39188C418.57758,337.69119 386.11066,347.15863 373.21875,363.76688C371.0618,366.54562 369.66516,369.12775 368.875,371.54813C355.84027,364.89301 341.09949,361.14188 325.46875,361.14188C310.18335,361.14188 295.72711,364.7283 282.90625,371.11063C282.0932,368.8176 280.74432,366.37634 278.71875,363.76688C268.24408,350.27267 244.83258,341.48901 233.71875,341.73563z"/>
  <path transform="translate(-0.898321, 0.000183105) matrix(1, 0, 0, 1, -200.076, -237.528)" fill="#000000" fill-opacity="0.31373" fill-rule="nonzero" stroke-width="4" stroke-linecap="round" stroke-linejoin="round" stroke-miterlimit="4" id="imagebot_35" d="M413.65625,419.75C414.8591,425.79504 415.5,432.03867 415.5,438.4375C415.5,491.25687 372.6319,534.125 319.8125,534.125C280.19797,534.125 246.18883,510.02734 231.65625,475.6875C240.42773,519.47797 279.10959,552.53125 325.46875,552.53125C378.28812,552.53125 421.15625,509.66312 421.15625,456.84375C421.15625,443.68979 418.47244,431.15378 413.65625,419.75z"/>
  <path fill="#ffffff" fill-rule="nonzero" stroke="#000000" stroke-width="9.93104" stroke-linecap="round" stroke-linejoin="round" stroke-miterlimit="4" id="imagebot_34" transform="translate(-0.898321, 0.000183105) matrix(0.402778, 0, 0, 0.402778, -42.1802, -4.6003)" d="M403.52332,522.30505A67.98833,67.98833 0 1 1 267.54669,522.30505A67.98833,67.98833 0 1 1 403.52332,522.30505z"/>
  <path fill="#ffffff" fill-rule="nonzero" stroke="#000000" stroke-width="9.93104" stroke-linecap="round" stroke-linejoin="round" stroke-miterlimit="4" id="imagebot_33" transform="translate(-0.898321, 0.000183105) matrix(0.402778, 0, 0, 0.402778, 21.4015, -4.6003)" d="M403.52332,522.30505A67.98833,67.98833 0 1 1 267.54669,522.30505A67.98833,67.98833 0 1 1 403.52332,522.30505z"/>
  <path fill="#000000" fill-rule="nonzero" stroke-width="32" stroke-linecap="round" stroke-linejoin="round" stroke-miterlimit="4" id="imagebot_32" transform="translate(-0.898321, 0.000183105) matrix(0.125, 0, 0, 0.125, 59.2078, 143.632)" d="M403.52332,522.30505A67.98833,67.98833 0 1 1 267.54669,522.30505A67.98833,67.98833 0 1 1 403.52332,522.30505z"/>
  <path fill="#000000" fill-rule="nonzero" stroke-width="32" stroke-linecap="round" stroke-linejoin="round" stroke-miterlimit="4" id="imagebot_31" transform="translate(-0.898321, 0.000183105) matrix(0.125, 0, 0, 0.125, 105.792, 143.632)" d="M403.52332,522.30505A67.98833,67.98833 0 1 1 267.54669,522.30505A67.98833,67.98833 0 1 1 403.52332,522.30505z"/>
  <path transform="translate(-0.898321, 0.000183105) matrix(1, 0, 0, 1, -200.076, -237.528)" fill="#000000" fill-rule="nonzero" stroke-width="4" stroke-linecap="round" stroke-linejoin="round" stroke-miterlimit="4" id="imagebot_30" d="M341.52933,498.12564C341.52933,506.9552 331.85965,514.12122 325.46265,514.12122C318.57126,514.12122 309.39597,506.9552 309.39597,498.12564C309.39597,489.29608 316.59384,487.05179 325.46265,487.05179C334.33148,487.05179 341.52933,489.29608 341.52933,498.12564z"/>
  <g id="imagebot_27" transform="translate(-0.898321, 0.000183105) matrix(1, 0, 0, 1, -202.598, -242.564)">
   <path fill="none" fill-rule="nonzero" stroke="#000000" stroke-width="4.2713" stroke-linecap="round" stroke-linejoin="round" stroke-miterlimit="4" id="imagebot_29" transform="matrix(0.937483,0,0,0.9354839,13.993399,33.331567)" d="M392.75058,487.02237A39.03034,39.03034 0 0 1 335.535,530.92542"/>
   <path fill="none" fill-rule="nonzero" stroke="#000000" stroke-width="4.2713" stroke-linecap="round" stroke-linejoin="round" stroke-miterlimit="4" id="imagebot_28" transform="matrix(-0.937483,0,0,0.9354839,641.97561,33.331567)" d="M392.75058,487.02237A39.03034,39.03034 0 0 1 335.535,530.92542"/>
  </g>
  <g id="imagebot_22" transform="translate(-0.898321, 0.000183105) matrix(1, 0, 0, 1, -200.076, -248.229)">
   <path fill="none" fill-opacity="0.75" fill-rule="evenodd" stroke="#000000" stroke-width="4" stroke-linecap="round" stroke-miterlimit="4" id="imagebot_25" d="M365.34735,505.66656C410.0209,489.05884 431.85181,509.55963 431.85181,509.55963"/>
   <path fill="none" fill-opacity="0.75" fill-rule="evenodd" stroke="#000000" stroke-width="4" stroke-linecap="round" stroke-miterlimit="4" id="imagebot_24" d="M358.93973,516.80322C390.57318,507.845 411.2912,530.68994 411.2912,530.68994"/>
   <path fill="none" fill-opacity="0.75" fill-rule="evenodd" stroke="#000000" stroke-width="4" stroke-linecap="round" stroke-miterlimit="4" id="imagebot_23" d="M356.30923,528.71442C380.64697,526.13837 389.96613,547.84021 389.96613,547.84021"/>
  </g>
  <g id="imagebot_18" transform="translate(-0.898321, 0.000183105) matrix(-1, 0, 0, 1, 451.478, -248.229)">
   <path fill="none" fill-opacity="0.75" fill-rule="evenodd" stroke="#000000" stroke-width="4" stroke-linecap="round" stroke-miterlimit="4" id="imagebot_21" d="M365.34735,505.66656C410.0209,489.05884 431.85181,509.55963 431.85181,509.55963"/>
   <path fill="none" fill-opacity="0.75" fill-rule="evenodd" stroke="#000000" stroke-width="4" stroke-linecap="round" stroke-miterlimit="4" id="imagebot_20" d="M358.93973,516.80322C390.57318,507.845 411.2912,530.68994 411.2912,530.68994"/>
   <path fill="none" fill-opacity="0.75" fill-rule="evenodd" stroke="#000000" stroke-width="4" stroke-linecap="round" stroke-miterlimit="4" id="imagebot_19" d="M356.30923,528.71442C380.64697,526.13837 389.96613,547.84021 389.96613,547.84021"/>
  </g>
  <path transform="translate(-0.898321, 0.000183105) matrix(1, 0, 0, 1, -200.076, -237.528)" fill="#3a200f" fill-rule="evenodd" stroke="#000000" stroke-width="4" stroke-linejoin="round" stroke-miterlimit="4" id="imagebot_17" d="M381.49005,380.03317C384.00815,360.51797 412.96613,347.29803 416.74326,350.44565C420.52039,353.59326 412.07388,383.84897 395.96906,391.36456C386.52625,395.77118 381.49008,385.06934 381.49005,380.03317z"/>
  <path transform="translate(-0.898321, 0.000183105) matrix(1, 0, 0, 1, -200.076, -237.528)" fill="#44240f" fill-rule="evenodd" stroke="#000000" stroke-width="4" stroke-linejoin="round" stroke-miterlimit="4" id="imagebot_16" d="M269.69867,380.03317C267.18057,360.51797 238.2226,347.29803 234.44547,350.44565C230.66833,353.59326 239.11485,383.84897 255.21967,391.36456C264.66248,395.77118 269.69867,385.06934 269.69867,380.03317z"/>
  <path transform="translate(-0.898321, 0.000183105) matrix(1, 0, 0, 1, -200.076, -237.528)" fill="#ff7f00" fill-rule="nonzero" stroke="#000000" stroke-width="4" stroke-linecap="round" stroke-linejoin="round" stroke-miterlimit="4" id="imagebot_15" d="M409.50378,608.23914C409.50378,629.78387 392.01819,629.01337 370.47345,629.01337C348.92871,629.01337 331.44312,629.78387 331.44312,608.23914C331.44312,586.6944 348.92871,569.2088 370.47345,569.2088C392.01819,569.2088 409.50378,586.6944 409.50378,608.23914z"/>
  <path transform="translate(-0.898321, 0.000183105) matrix(1, 0, 0, 1, -200.076, -237.528)" fill="#ff7f00" fill-rule="nonzero" stroke="#000000" stroke-width="4" stroke-linecap="round" stroke-linejoin="round" stroke-miterlimit="4" id="imagebot_14" d="M319.48221,608.23914C319.48221,629.78387 301.99661,629.01337 280.45187,629.01337C268.47195,629.01337 257.7471,629.25159 250.58562,625.75909C244.86781,622.97064 241.42152,617.80402 241.42152,608.23914C241.42152,586.6944 258.9071,569.2088 280.45187,569.2088C301.99661,569.2088 319.48221,586.6944 319.48221,608.23914z"/>
  <path transform="translate(-0.898321, 0.000183105) matrix(1, 0, 0, 1, -200.076, -237.528)" fill="#000000" fill-opacity="0.31373" fill-rule="nonzero" stroke-width="4" stroke-linecap="round" stroke-linejoin="round" stroke-miterlimit="4" id="imagebot_13" d="M390.96875,575.03125C395.69159,581.51123 398.5,589.4986 398.5,598.125C398.5,610.59137 392.66486,621.68359 383.59375,628.875C398.67499,628.30243 409.5,625.18127 409.5,608.25C409.5,594.21826 402.09338,581.91034 390.96875,575.03125z"/>
  <path transform="translate(-0.898321, 0.000183105) matrix(1, 0, 0, 1, -200.076, -237.528)" fill="#000000" fill-opacity="0.31373" fill-rule="nonzero" stroke-width="4" stroke-linecap="round" stroke-linejoin="round" stroke-miterlimit="4" id="imagebot_12" d="M300.46875,575.03125C305.19159,581.51123 308,589.4986 308,598.125C308,610.59137 302.16486,621.68359 293.09375,628.875C308.17499,628.30243 319,625.18127 319,608.25C319,594.21826 311.59338,581.91034 300.46875,575.03125z"/>
  <path transform="translate(-0.898321, 0.000183105) matrix(1, 0, 0, 1, -200.076, -237.528)" fill="#000000" fill-opacity="0.31373" fill-rule="nonzero" stroke-width="4" stroke-linecap="round" stroke-linejoin="round" stroke-miterlimit="4" id="imagebot_11" d="M336.65625,588.75C333.34372,594.48474 331.4375,601.15558 331.4375,608.25C331.4375,625.75513 342.9902,628.51282 358.875,628.9375C343.09521,622.3595 335.07034,606.72992 336.65625,588.75z"/>
  <g id="imagebot_7" transform="translate(-0.898321, 0.000183105) matrix(-1, 0, 0, 1, 452.399, -239.355)">
   <path fill="none" fill-opacity="0.75" fill-rule="evenodd" stroke="#000000" stroke-width="4" stroke-linecap="round" stroke-miterlimit="4" id="imagebot_10" d="M357.34171,628.69415C353.83911,617.36279 357.8421,604.14282 357.8421,604.14282"/>
   <path fill="none" fill-opacity="0.75" fill-rule="evenodd" stroke="#000000" stroke-width="4" stroke-linecap="round" stroke-miterlimit="4" id="imagebot_9" d="M375.36716,631.21228C379.66019,612.95612 374.75385,598.47711 374.75385,598.47711"/>
   <path fill="none" fill-opacity="0.75" fill-rule="evenodd" stroke="#000000" stroke-width="4" stroke-linecap="round" stroke-miterlimit="4" id="imagebot_8" d="M393.62143,629.32373C402.43472,615.47424 394.88046,604.14282 394.88046,604.14282"/>
  </g>
  <g id="imagebot_3" transform="translate(-0.898321, 0.000183105) matrix(1, 0, 0, 1, -200.899, -239.355)">
   <path fill="none" fill-opacity="0.75" fill-rule="evenodd" stroke="#000000" stroke-width="4" stroke-linecap="round" stroke-miterlimit="4" id="imagebot_6" d="M357.34171,628.69415C353.83911,617.36279 357.8421,604.14282 357.8421,604.14282"/>
   <path fill="none" fill-opacity="0.75" fill-rule="evenodd" stroke="#000000" stroke-width="4" stroke-linecap="round" stroke-miterlimit="4" id="imagebot_5" d="M375.36716,631.21228C379.66019,612.95612 374.75385,598.47711 374.75385,598.47711"/>
   <path fill="none" fill-opacity="0.75" fill-rule="evenodd" stroke="#000000" stroke-width="4" stroke-linecap="round" stroke-miterlimit="4" id="imagebot_4" d="M393.62143,629.32373C402.43472,615.47424 394.88046,604.14282 394.88046,604.14282"/>
  </g>
  <title>imagebot_2</title>
 </g>
</svg>